<?xml version="1.0" encoding="UTF-8" standalone="no"?>
<!DOCTYPE svg PUBLIC "-//W3C//DTD SVG 1.1//EN"
 "http://www.w3.org/Graphics/SVG/1.1/DTD/svg11.dtd">
<!-- Generated by graphviz version 13.1.2 (20250808.2320)
 -->
<!-- Title: CustomXSec Pages: 1 -->
<svg width="131pt" height="115pt"
 viewBox="0.00 0.00 131.00 115.00" xmlns="http://www.w3.org/2000/svg" xmlns:xlink="http://www.w3.org/1999/xlink">
<g id="graph0" class="graph" transform="scale(1 1) rotate(0) translate(4 111)">
<title>CustomXSec</title>
<!-- Node1 -->
<g id="Node000001" class="node">
<title>Node1</title>
<g id="a_Node000001"><a xlink:title=" ">
<polygon fill="#999999" stroke="#666666" points="101,-19.25 26.5,-19.25 26.5,0 101,0 101,-19.25"/>
<text xml:space="preserve" text-anchor="middle" x="63.75" y="-5.75" font-family="Helvetica,sans-Serif" font-size="10.00">CustomXSec</text>
</a>
</g>
</g>
<!-- Node2 -->
<g id="Node000002" class="node">
<title>Node2</title>
<g id="a_Node000002"><a xlink:title=" ">
<polygon fill="white" stroke="#bfbfbf" points="59.5,-107 0,-107 0,-87.75 59.5,-87.75 59.5,-107"/>
<text xml:space="preserve" text-anchor="middle" x="29.75" y="-93.5" font-family="Helvetica,sans-Serif" font-size="10.00">SkinXSec</text>
</a>
</g>
</g>
<!-- Node2&#45;&gt;Node1 -->
<g id="edge1_Node000001_Node000002" class="edge">
<title>Node2&#45;&gt;Node1</title>
<g id="a_edge1_Node000001_Node000002"><a xlink:title=" ">
<path fill="none" stroke="#63b8ff" d="M37.5,-76.82C44.63,-58.85 54.87,-33.02 60.21,-19.56"/>
<polygon fill="#63b8ff" stroke="#63b8ff" points="34.25,-75.53 33.82,-86.11 40.76,-78.11 34.25,-75.53"/>
</a>
</g>
</g>
<!-- Node3 -->
<g id="Node000003" class="node">
<title>Node3</title>
<g id="a_Node000003"><a xlink:href="classvec3d.html" target="_top" xlink:title=" ">
<polygon fill="white" stroke="#666666" points="119.88,-107 77.62,-107 77.62,-87.75 119.88,-87.75 119.88,-107"/>
<text xml:space="preserve" text-anchor="middle" x="98.75" y="-93.5" font-family="Helvetica,sans-Serif" font-size="10.00">vec3d</text>
</a>
</g>
</g>
<!-- Node3&#45;&gt;Node1 -->
<g id="edge2_Node000001_Node000003" class="edge">
<title>Node3&#45;&gt;Node1</title>
<g id="a_edge2_Node000001_Node000003"><a xlink:title=" ">
<path fill="none" stroke="#9a32cd" stroke-dasharray="5,2" d="M90.87,-77.08C83.53,-59.1 72.92,-33.09 67.4,-19.56"/>
<polygon fill="#9a32cd" stroke="#9a32cd" points="87.54,-78.18 94.56,-86.12 94.03,-75.54 87.54,-78.18"/>
</a>
</g>
<text xml:space="preserve" text-anchor="start" x="90.43" y="-57.25" font-family="Helvetica,sans-Serif" font-size="10.00" fill="grey">m_Loc</text>
<text xml:space="preserve" text-anchor="start" x="90.43" y="-42" font-family="Helvetica,sans-Serif" font-size="10.00" fill="grey">m_Rot</text>
</g>
</g>
</svg>
